<?xml version="1.0" encoding="UTF-8"?>
<svg width="256px" height="256px" viewBox="0 0 256 256" version="1.1" xmlns="http://www.w3.org/2000/svg" xmlns:xlink="http://www.w3.org/1999/xlink">
    <!-- Generator: Sketch 55.2 (78181) - https://sketchapp.com -->
    <title>icon</title>
    <desc>Created with Sketch.</desc>
    <defs>
        <circle id="path-1" cx="128" cy="128" r="128"></circle>
    </defs>
    <g id="Page-1" stroke="none" stroke-width="1" fill="none" fill-rule="evenodd">
        <g id="icon">
            <g id="Oval" fill="#0EAAC6" fill-rule="nonzero">
                <circle id="path-1" cx="128" cy="128" r="128"></circle>
            </g>
            <g id="Combined-Shape-Clipped">
                <mask id="mask-2" fill="white">
                    <use xlink:href="#path-1"></use>
                </mask>
                <g id="path-1"></g>
                <path d="M47.9045054,113.197631 C52.0698746,109.639187 58.3319375,110.130407 61.8912145,114.294801 C65.4504915,118.459196 64.9591568,124.719792 60.7937876,128.278236 L48.0254298,139.186149 C41.0831479,145.116888 40.2642566,155.551217 46.196385,162.491874 C49.3186963,166.145013 53.8764614,168.259038 58.6826982,168.283393 L198.454549,168.991642 C203.933415,169.019405 208.352404,173.48237 208.324894,178.959954 C208.296866,184.437538 203.832856,188.855492 198.353989,188.827988 L58.582138,188.11948 C48.0084172,188.065901 37.9813339,183.415045 31.112249,175.378139 C18.0615667,160.108694 19.8631275,137.153171 35.1361476,124.105544 L47.9045054,113.197631 Z M208.84185,142.802369 C204.676481,146.360813 198.414418,145.869593 194.855141,141.705199 C191.295864,137.540804 191.787199,131.280208 195.952568,127.721764 L208.720926,116.813851 C215.663208,110.883112 216.482099,100.448783 210.54997,93.5081259 C207.427659,89.8549872 202.869894,87.7409616 198.063658,87.7166073 L58.2918068,87.0083583 C52.8129399,86.9805953 48.393952,82.5176301 48.4214619,77.0400459 C48.4494899,71.5624618 52.9135001,67.1445083 58.3923669,67.1720116 L198.164218,67.8805202 C208.737938,67.9340993 218.765022,72.5849549 225.634107,80.6218613 C238.684789,95.891306 236.883228,118.846829 221.610208,131.894456 L208.84185,142.802369 Z M105.596235,142.39441 C98.1513091,142.39441 92.1160046,135.949813 92.1160046,128 C92.1160046,120.050187 98.1513091,113.60559 105.596235,113.60559 C113.041162,113.60559 119.076467,120.050187 119.076467,128 C119.076467,135.949813 113.041162,142.39441 105.596235,142.39441 Z M151.15012,142.39441 C143.705194,142.39441 137.669889,135.949813 137.669889,128 C137.669889,120.050187 143.705194,113.60559 151.15012,113.60559 C158.595047,113.60559 164.630351,120.050187 164.630351,128 C164.630351,135.949813 158.595047,142.39441 151.15012,142.39441 Z" id="Combined-Shape" fill="#FFFFFF" fill-rule="nonzero" mask="url(#mask-2)"></path>
            </g>
        </g>
    </g>
</svg>