<?xml version="1.0" encoding="UTF-8"?>
<svg width="232px" height="15px" viewBox="0 0 232 15" version="1.1" xmlns="http://www.w3.org/2000/svg" xmlns:xlink="http://www.w3.org/1999/xlink">
    <!-- Generator: Sketch 55.2 (78181) - https://sketchapp.com -->
    <title>marker-2</title>
    <desc>Created with Sketch.</desc>
    <g id="Page-3" stroke="none" stroke-width="1" fill="none" fill-rule="evenodd">
        <g id="one-page-navigation-copy-3" transform="translate(-119.000000, -1344.000000)" fill="#FF0000" fill-rule="nonzero">
            <g id="Group-2" transform="translate(118.000000, 840.000000)">
                <g id="20+-Predesigned-Temp-+-20+-Predesigned-Temp-Mask">
                    <g id="Group-6-Copy" transform="translate(0.000000, 296.000000)">
                        <g id="Group-8" transform="translate(0.000000, 134.000000)">
                            <path d="M4.36232465,74.4090789 L1,74 L1,77.3871186 C1,79.8570351 2.7089781,81.0886629 5.49659457,82.0155572 C7.26982293,82.6051631 9.73843283,83.107274 12.9344467,83.5517847 C18.7571301,84.3616203 27.087732,84.9890474 37.8595422,85.4640321 C47.7604344,85.9006136 59.3277261,86.2022597 73.2447467,86.4024561 C97.3559122,87.5646362 120.09986,87.6145769 142.530198,86.7526532 C142.84315,86.7528484 143.159747,86.753044 143.480085,86.7532401 C174.277533,86.7720907 186.471432,86.8208258 198.370033,87.0373478 C205.773974,87.1720794 211.327265,87.3664748 215.104158,87.633283 C217.040767,87.7700895 218.486896,87.9250436 219.398533,88.0900022 C219.504438,88.1091654 219.598784,88.1277685 219.680018,88.1448687 C220.192357,88.552673 220.841159,88.7963498 221.546875,88.7963498 C223.203729,88.7963498 224.546875,87.4532041 224.546875,85.7963498 C224.546875,84.021181 223.57558,83.1951569 222.259506,82.6637601 C221.763626,82.4635366 221.183646,82.3155792 220.46687,82.1858802 C219.297294,81.9742483 217.661933,81.7990177 215.526958,81.6481982 C214.641606,81.5856549 213.666932,81.5271384 212.601536,81.472447 C212.72143,81.4609991 212.806367,81.4529517 212.853292,81.4486077 C220.772062,80.7155468 225.710186,80.3871186 229.546875,80.3871186 C231.203729,80.3871186 232.546875,79.0439729 232.546875,77.3871186 C232.546875,75.7302644 231.203729,74.3871186 229.546875,74.3871186 C225.47261,74.3871186 220.394019,74.724889 212.300222,75.4741527 C211.294506,75.5672543 193.64723,77.2817979 187.42179,77.8365983 C172.342594,79.18043 157.446676,80.1728527 142.410271,80.7525771 C127.810196,80.7434445 121.169645,80.7349841 112.782625,80.7092993 C97.8317958,80.6635131 84.8420968,80.5680342 73.4401692,80.40459 C51.7877118,79.3586177 29.0210041,77.409189 4.36232465,74.4090789 Z" id="marker-2"></path>
                        </g>
                    </g>
                </g>
            </g>
        </g>
    </g>
</svg>