<?xml version="1.0" encoding="UTF-8"?>
<svg width="223px" height="8px" viewBox="0 0 223 8" version="1.1" xmlns="http://www.w3.org/2000/svg" xmlns:xlink="http://www.w3.org/1999/xlink">
    <!-- Generator: Sketch 55.2 (78181) - https://sketchapp.com -->
    <title>marker-5</title>
    <desc>Created with Sketch.</desc>
    <g id="Page-3" stroke="none" stroke-width="1" fill="none" fill-rule="evenodd">
        <g id="one-page-navigation-copy-3" transform="translate(-119.000000, -1459.000000)" fill="#FF0000" fill-rule="nonzero">
            <g id="Group-2" transform="translate(118.000000, 840.000000)">
                <g id="20+-Predesigned-Temp-+-20+-Predesigned-Temp-Mask">
                    <g id="Group-6-Copy" transform="translate(0.000000, 296.000000)">
                        <g id="Group-8" transform="translate(0.000000, 134.000000)">
                            <path d="M170.761419,196.528469 C181.387969,196.528469 191.173631,197.662697 209.761351,195.426071 C210.063142,195.389757 215.309859,194.933219 215.887632,194.862947 C219.744443,194.789532 221.349705,194.74628 221.818291,194.685491 C221.985104,194.694547 222.676005,194.099266 223.839645,193.644014 C224.555455,193.209975 222.614335,193.864363 223.198463,192.328347 C222.753483,190.649603 224.003702,190.789047 223.198463,190.257087 C222.324367,189.858095 222.324367,189.659545 222.058393,189.621246 C221.799063,189.571181 221.660463,189.560609 221.39714,189.548835 C221.205471,189.540265 220.930328,189.534338 220.545966,189.52968 C219.834028,189.521051 218.716395,189.516801 217.185903,189.516801 C211.10724,189.516801 198.449244,189.584079 179.202375,189.718639 C178.990383,189.720121 177.29962,189.613176 173.631399,189.36749 L173.621223,189.366808 C169.204805,189.071011 168.022665,188.996454 167.501086,189.000128 C141.829665,189.182134 87.3393089,189.914739 4.0179782,191.198037 C2.81053286,191.216634 2.62124396,191.687071 2.13861488,192.328347 C1.79409988,192.786108 0.979119909,193.327223 1.00040921,193.870048 C1.02026554,194.340105 1.84475968,194.464442 2.13861488,194.862947 C2.62710548,195.525402 2.82577369,196.343561 4.06670574,196.346207 L89.5547969,196.528469 L133.353585,196.346944 C147.480821,197.701673 159.94512,196.528469 170.761419,196.528469 Z" id="marker-5"></path>
                        </g>
                    </g>
                </g>
            </g>
        </g>
    </g>
</svg>