<?xml version="1.0" encoding="UTF-8"?>
<svg width="273px" height="38px" viewBox="0 0 273 38" version="1.1" xmlns="http://www.w3.org/2000/svg" xmlns:xlink="http://www.w3.org/1999/xlink">
    <!-- Generator: Sketch 55.2 (78181) - https://sketchapp.com -->
    <title>marker-3</title>
    <desc>Created with Sketch.</desc>
    <g id="Page-3" stroke="none" stroke-width="1" fill="none" fill-rule="evenodd">
        <g id="one-page-navigation-copy-3" transform="translate(-127.000000, -1509.000000)" fill="#FFEB3B" fill-rule="nonzero">
            <g id="Group-2" transform="translate(118.000000, 840.000000)">
                <g id="20+-Predesigned-Temp-+-20+-Predesigned-Temp-Mask">
                    <g id="Group-6-Copy" transform="translate(0.000000, 296.000000)">
                        <g id="Group-8" transform="translate(0.000000, 134.000000)">
                            <path d="M56.8021438,276.622378 C51.6873333,276.466625 48.524885,276.353188 48.0970995,276.310129 C47.8583801,276.2861 46.9123914,276.236311 45.994904,276.199489 C45.0774165,276.162668 44.0991047,276.104298 43.8208795,276.069782 C43.5426543,276.035266 42.8907658,275.98902 42.3722378,275.967012 C40.661972,275.894427 39.090524,275.754506 37.8457887,275.563976 C37.3633568,275.490132 36.903521,275.452051 36.8239388,275.479351 C36.7443538,275.506653 36.723685,275.489015 36.7780065,275.440157 C36.8448642,275.380024 36.3619163,275.340283 35.2831924,275.317149 C34.4067232,275.298353 33.5929047,275.259472 33.4747066,275.23075 C33.3565086,275.202027 33.2229051,275.044074 33.1778137,274.879745 C33.084576,274.53996 32.9318789,274.487655 31.5453474,274.32056 C31.0285639,274.258281 30.2168858,274.126972 29.7416174,274.028761 C29.2663517,273.93055 28.7058445,273.828167 28.496044,273.801241 C27.8970329,273.724364 27.9076444,273.53559 28.5311545,273.176549 C29.1868268,272.798992 29.7037386,272.641766 30.7557441,272.499903 C31.4378619,272.407923 32.371268,272.026565 32.3795016,271.836494 C32.3822589,271.772648 31.7570944,271.648576 30.8667568,271.53627 C30.6282995,271.506193 29.8465094,271.451512 29.1294449,271.414757 C28.4123777,271.378003 27.4587778,271.286119 27.0103262,271.21057 C26.5119237,271.126607 25.5097872,271.062946 24.4323736,271.046808 C22.5189721,271.018146 21.7007665,270.884797 21.5800022,270.581932 C21.5390932,270.479339 21.1819819,270.317002 20.6720616,270.169195 C20.2097825,270.035196 19.866485,269.894144 19.9091822,269.855743 C19.9518767,269.817341 19.9009649,269.802108 19.7960674,269.821893 C19.3248967,269.910748 18.6233632,269.714799 18.3749687,269.42496 C18.1042428,269.109062 18.2317392,268.817761 18.6380615,268.823848 C18.7550556,268.825598 18.8525412,268.798223 18.8547006,268.763008 C18.8568846,268.727794 19.299677,268.694506 19.8387455,268.689035 C20.3778113,268.683577 20.842247,268.642456 20.8708274,268.597685 C20.8994078,268.552914 21.0441824,268.518103 21.1925497,268.520326 C21.340917,268.522541 21.5043594,268.486545 21.5557544,268.44032 C21.6071521,268.394094 21.7145475,268.357252 21.7944164,268.358448 C21.8742853,268.359572 21.9063655,268.390545 21.8657049,268.427116 C21.8250416,268.463687 21.9833024,268.494978 22.217389,268.496654 C22.4687537,268.498452 22.6449916,268.453862 22.6478553,268.387736 C22.6505853,268.326155 22.7170218,268.300499 22.7956349,268.330722 C22.8742452,268.360944 22.9401474,268.349089 22.942083,268.304377 C22.9477887,268.172643 22.569791,268.118867 21.9013068,268.156315 C21.5573432,268.17558 20.9837539,268.143247 20.6266617,268.084388 C20.2695695,268.025562 19.8798675,267.964786 19.7606566,267.949332 C19.6414429,267.933873 19.429827,267.890624 19.2903922,267.853215 C19.1509575,267.815806 18.9063577,267.803194 18.7468411,267.825187 C18.375875,267.876336 18.254319,267.758242 18.5411601,267.625362 C18.662596,267.569107 18.7615012,267.556619 18.7609497,267.597611 C18.7604037,267.638603 18.8096201,267.634437 18.8703326,267.588348 C19.0570646,267.446606 19.6438235,267.291941 19.6397694,267.385535 C19.6375854,267.432898 19.705243,267.472686 19.7898239,267.473953 C19.8744047,267.475237 19.9130069,267.44541 19.8756032,267.407707 C19.7791223,267.310455 20.9450943,267.312584 21.2371252,267.410196 C21.3931037,267.462332 21.5401606,267.457481 21.6490931,267.396598 C21.8447058,267.287287 22.4300478,267.25105 22.3139845,267.355438 C22.1787349,267.477082 22.6458051,267.436712 22.8332898,267.310553 C22.966784,267.220725 23.1047146,267.211824 23.3706275,267.275878 C23.8302666,267.386597 23.9864581,267.386397 23.7132042,267.275557 C23.5526884,267.210377 23.6263111,267.192202 24.0069659,267.20303 C24.2863404,267.210976 25.0069075,267.181324 25.6082255,267.137136 C26.209538,267.092946 26.8764988,267.05425 27.0903506,267.051142 C27.7262004,267.041911 27.5557692,266.754039 26.7072907,266.40414 C26.2225328,266.204234 25.993292,266.055442 26.0486646,265.976651 C26.1027541,265.899687 26.1921534,265.884659 26.2948232,265.935277 C26.3834963,265.978992 26.5880853,265.985741 26.7494583,265.950271 C26.9108368,265.914803 27.2865339,265.886732 27.5843414,265.887889 C28.0034619,265.889527 28.1850042,265.839714 28.3877749,265.66747 C28.7171494,265.387684 28.7646296,265.229209 28.5827897,265.016566 C28.5038381,264.924244 28.4982962,264.871411 28.5704774,264.899159 C28.6426532,264.926907 28.7942828,264.808853 28.9074359,264.636814 C29.0205862,264.464778 29.186865,264.296877 29.2769386,264.263698 C29.3670122,264.230524 29.1793739,264.198286 28.8599639,264.192062 C28.4310127,264.183714 28.3370897,264.159963 28.5006249,264.101232 C28.6685336,264.040933 28.6075345,264.01969 28.2481682,264.013312 C27.9875433,264.008721 27.662343,263.968427 27.525499,263.92384 C27.3886523,263.879256 26.6763871,263.691684 25.9426833,263.507019 C24.4712652,263.136678 23.6154429,263.044473 20.4871478,262.919249 C18.0898147,262.823286 17.8204975,262.801816 17.4447813,262.676728 C17.062311,262.54939 15.0853624,262.34337 13.8297372,262.300001 C13.1715806,262.277269 12.5864707,262.199302 12.1674184,262.078497 C11.8117485,261.975964 11.1955166,261.861303 10.7980149,261.823695 C10.0075189,261.748905 8.9956062,261.521166 9,261.419045 C9,261.383609 9.38170736,261.287737 9.84478906,261.205999 C10.5564045,261.080392 11.1589237,261.063496 13.7365459,261.096875 C15.7955665,261.123538 16.96758,261.103698 17.3442381,261.035804 C17.888166,260.93776 18.4091865,260.960401 19.7371458,261.13979 C20.0794441,261.18603 21.0530085,261.24126 21.9006161,261.262522 C22.7482257,261.283785 23.5661228,261.342762 23.7181701,261.393581 C23.8807389,261.447922 24.2137825,261.462519 24.5266896,261.429024 C24.819332,261.397697 25.1161348,261.381108 25.1862521,261.392156 C25.4452936,261.432976 29.8670227,261.472538 30.3596894,261.438442 C31.1949083,261.380642 32.2430344,261.345303 33.68739,261.326241 C34.4364556,261.316352 35.1218794,261.267727 35.2105552,261.218172 C35.3681472,261.130109 35.1021388,261.08126 34.6241977,261.110501 C34.5240312,261.116634 34.4439931,261.07742 34.4463355,261.023372 C34.4487925,260.969322 34.3564393,260.944745 34.2413616,260.968754 C34.1262839,260.992762 33.9539144,260.954017 33.8583153,260.882667 C33.7187386,260.778483 33.6600163,260.774395 33.5601966,260.861918 C33.4588836,260.950749 33.4363802,260.950095 33.4385423,260.858386 C33.4401803,260.787264 33.3398419,260.763118 33.1657471,260.792762 C32.982332,260.823992 32.8597004,260.788941 32.7987041,260.687844 C32.7483219,260.604343 32.7779561,260.523306 32.8645462,260.507762 C33.0884499,260.467569 33.4627847,260.247413 33.4668497,260.15353 C33.4725281,260.0226 32.9046199,259.713908 32.7534652,259.765759 C32.6762281,259.792256 32.6525808,259.757668 32.7009182,259.688878 C32.767724,259.593815 32.7100091,259.574686 32.4602359,259.609122 C32.1992998,259.645099 32.1515903,259.626076 32.2284508,259.516705 C32.3716502,259.312939 32.0666819,259.242242 31.8174793,259.421437 C31.6809083,259.519643 31.6308647,259.529838 31.6806872,259.449305 C31.7684894,259.307393 31.0992436,259.068499 30.8517418,259.153403 C30.7664648,259.182657 30.7485451,259.163003 30.8100547,259.10768 C30.8693913,259.054316 30.8487361,259.009614 30.7641552,259.008348 C30.6795716,259.007063 30.6078709,259.063683 30.6048188,259.134131 C30.5969837,259.314917 30.3096457,259.290134 30.3051057,259.108279 C30.3019389,258.981267 30.2826378,258.984202 30.1771397,259.127724 C30.1088106,259.220692 30.0719692,259.3179 30.0952725,259.343739 C30.1185867,259.369578 30.0112322,259.394419 29.8567333,259.39894 C29.5170066,259.408877 29.5000779,259.341116 29.8106836,259.214571 C29.9911585,259.141044 29.8631406,259.123718 29.2215824,259.134849 C28.7373705,259.143245 28.4377448,259.116826 28.4894838,259.070297 C28.5380915,259.026578 28.4468767,259.009473 28.284499,259.031862 C28.1143818,259.055318 27.993754,259.030177 27.9962793,258.97181 C27.9987363,258.916595 27.9229733,258.89806 27.8280621,258.930618 C27.7068256,258.972208 27.6907131,258.941694 27.7738908,258.82804 C27.8390067,258.739065 27.9094871,258.614139 27.9305109,258.550428 C27.9959189,258.352202 28.3680916,258.299639 28.819175,258.42492 C29.0560844,258.490718 29.1681017,258.54645 29.0680991,258.548768 C28.7112526,258.557052 28.8861064,258.723877 29.2574574,258.72944 C29.5306375,258.733533 29.6147707,258.699871 29.5596602,258.608531 C29.5176564,258.538915 29.549996,258.459074 29.631511,258.431107 C29.7262093,258.39862 29.7137741,258.329962 29.5970721,258.240964 C29.4426633,258.123212 29.4498022,258.110056 29.6432036,258.155909 C29.769043,258.185743 29.9657613,258.173036 30.0803585,258.127673 C30.2449229,258.062529 30.2344834,258.054574 30.0306943,258.089834 C29.8131761,258.127469 29.7894442,258.098198 29.8795097,257.903375 C29.9382702,257.776268 30.0400664,257.652477 30.1057229,257.628281 C30.3194219,257.549532 30.0951851,257.211943 29.8615545,257.260685 C29.7100285,257.292298 29.6613117,257.257732 29.6992232,257.145532 C29.7388546,257.028255 29.6751992,256.989107 29.46215,256.999723 C29.3019645,257.007702 29.2539193,256.994089 29.3553852,256.969465 C29.4568511,256.944841 29.5070995,256.891666 29.4670531,256.8513 C29.4270067,256.810934 29.5279594,256.725766 29.6913881,256.66204 C29.8548168,256.598311 29.946482,256.520153 29.8950898,256.488351 C29.8436921,256.45655 29.9269189,256.431818 30.0800309,256.433391 C30.3085565,256.435735 30.3207077,256.421432 30.1478741,256.353472 C30.0097143,256.299151 29.899799,256.304448 29.8281611,256.368883 C29.7681175,256.422888 29.6785271,256.442034 29.6290704,256.411432 C29.5384016,256.355327 29.8234901,255.997418 30.0196269,255.92112 C30.1799489,255.858753 30.3803527,255.470039 30.2246472,255.523455 C30.1510655,255.548695 30.0176995,255.496383 29.9282757,255.407205 C29.7835829,255.262913 29.8090456,255.247441 30.1595694,255.266665 C30.4078247,255.280278 30.5417449,255.248602 30.5217776,255.180984 C30.5043602,255.121979 30.5388947,255.078986 30.5985698,255.085445 C30.8969015,255.117742 31.0715014,255.069841 31.0765054,254.954315 C31.079563,254.883868 31.1512583,254.827265 31.2358419,254.828533 C31.3204227,254.829817 31.354212,254.795137 31.3109278,254.751508 C31.2676409,254.707878 31.3151593,254.653949 31.4165242,254.631665 C31.5277062,254.607224 31.5001223,254.586966 31.3469856,254.580603 C31.2073762,254.574808 31.0944279,254.540569 31.0959895,254.504531 C31.0976275,254.468493 30.870142,254.441904 30.5906364,254.445442 C30.3111309,254.448974 30.1201646,254.417949 30.1662716,254.376482 C30.2123758,254.335015 30.1116907,254.299014 29.9425263,254.296479 C29.7733645,254.293943 29.6770092,254.25405 29.7284014,254.207825 C29.7797992,254.1616 29.745655,254.122637 29.6525266,254.121243 C29.5551966,254.119798 29.5246779,254.059695 29.5807467,253.979912 C29.6623027,253.863859 29.6412844,253.858258 29.452464,253.94573 C29.267228,254.031539 29.227643,254.027232 29.232213,253.921759 C29.2352706,253.851038 29.3693464,253.775035 29.5301461,253.752866 C29.7061301,253.728601 29.8256249,253.64074 29.8303287,253.532151 C29.836908,253.380223 29.7747705,253.35865 29.4366464,253.395478 C29.107179,253.431363 29.0805943,253.423118 29.288462,253.349519 C29.523818,253.266185 29.5203263,253.244561 29.2391472,253.044322 C29.0727073,252.925796 28.8394043,252.827362 28.7206902,252.825585 C28.2837101,252.819035 28.6784817,252.735016 29.2660596,252.709509 C29.6198676,252.694146 29.8360754,252.715898 29.785139,252.761704 C29.7371265,252.804888 29.7631898,252.8412 29.843056,252.842396 C29.9229249,252.84352 30.0230203,252.813319 30.0654882,252.775122 C30.1079588,252.736926 30.3579312,252.716075 30.6209804,252.728787 C30.8840323,252.741501 31.1766364,252.718112 31.2712118,252.676815 C31.3768573,252.630681 31.4780475,252.636887 31.5336248,252.69291 C31.5948696,252.754641 31.7127101,252.757884 31.898492,252.702943 C32.0494174,252.658315 32.3246942,252.627338 32.5102222,252.634107 C33.0256899,252.652911 34.8090487,252.586086 34.933796,252.543293 C35.0309731,252.509957 36.6212281,252.414914 37.1079407,252.413353 C37.3628517,252.41255 37.3524995,252.010906 37.0945091,251.892347 C36.9771464,251.838412 36.8712115,251.687527 36.8591039,251.557046 C36.8454266,251.40968 36.7688146,251.334053 36.6568601,251.357412 C36.5513292,251.379428 36.5099806,251.347555 36.5570977,251.280512 C36.6096693,251.205709 36.4873025,251.144233 36.2041469,251.103191 C35.7280158,251.03418 35.3953626,250.842744 35.5343496,250.717739 C35.5844287,250.672698 35.4955536,250.655444 35.3306097,250.678187 C35.1221961,250.706922 35.039862,250.676517 35.0443692,250.572484 C35.0478363,250.492162 34.9208695,250.404389 34.7621992,250.377432 C34.44001,250.322697 34.3925299,250.217575 34.6500917,250.12922 C34.7568757,250.092588 34.7792862,250.107766 34.7101818,250.169918 C34.649573,250.22443 34.6540884,250.264335 34.7202282,250.258599 C35.0313581,250.231596 35.2021223,250.2855 35.1967688,250.409028 C35.1891521,250.585068 35.5407597,250.521984 35.6109753,250.334716 C35.6406449,250.255585 35.6107023,250.195584 35.5440957,250.201379 C35.1419367,250.236467 34.9166626,250.166364 34.9235094,250.008265 C34.9276863,249.911563 34.9954449,249.857171 35.0740553,249.887393 C35.1526683,249.917615 35.2204105,249.863223 35.2246011,249.766522 C35.228778,249.669818 35.3232469,249.592063 35.4345026,249.593729 C35.5457638,249.595399 35.6782916,249.537708 35.7290123,249.465532 C35.7797329,249.393358 35.760642,249.355092 35.6865853,249.380497 C35.6125286,249.405901 35.5257993,249.377751 35.4938501,249.317961 C35.4619009,249.258164 35.4500254,249.276741 35.467451,249.359244 C35.4848957,249.441748 35.4399217,249.508363 35.3675302,249.507279 C35.2951361,249.506155 35.2378907,249.459536 35.240315,249.403596 C35.242772,249.347653 35.1490511,249.374846 35.0321197,249.464022 C34.8760593,249.583036 34.8633156,249.642995 34.9841946,249.689469 C35.0787236,249.725811 35.0210332,249.745187 34.8487456,249.734954 C34.5823004,249.719126 34.4040832,249.492847 34.6610964,249.496698 C34.7176729,249.497501 34.8081615,249.383547 34.8621854,249.24337 C34.9402061,249.040933 35.0358434,248.98963 35.3270826,248.993993 C35.5287477,248.997011 35.6954142,248.96106 35.697448,248.914094 C35.699359,248.867129 35.8318404,248.830661 35.9915782,248.833054 C36.2991536,248.837662 36.376642,248.963256 36.1251407,249.049531 C35.8566425,249.141638 36.1040378,249.241819 36.5605429,249.225847 C37.1548994,249.205055 37.3004958,249.111211 36.7674333,249.092498 C36.3522166,249.077921 36.3511356,249.076605 36.7099258,249.022314 L37.0755984,248.966988 L36.7533901,248.857584 C36.3821456,248.731529 36.3331258,248.58183 36.6647143,248.586795 C36.7892323,248.588658 36.8490575,248.628009 36.7976598,248.674234 C36.7462648,248.720461 36.7734174,248.759318 36.8579983,248.760585 C36.9425791,248.761869 37.0151125,248.686037 37.0191829,248.592106 C37.0236874,248.488649 37.1233898,248.422774 37.2721584,248.425003 C37.4858082,248.428213 37.4817732,248.412304 37.2411265,248.302723 C37.0202231,248.20213 36.94894,248.198706 36.8871465,248.285718 C36.8401523,248.351891 36.7039717,248.370638 36.5403273,248.333462 C36.2871116,248.27594 36.2860769,248.263763 36.5231283,248.13129 C36.6618696,248.053761 36.8687354,247.991726 36.982833,247.993434 C37.1702611,247.996244 37.2586558,247.893848 37.2195021,247.719278 C37.2115578,247.683913 37.3069577,247.656503 37.431473,247.658369 C37.5559883,247.660231 37.6218195,247.625426 37.5777628,247.581018 C37.4734931,247.475917 37.7534383,247.380496 37.947342,247.455043 C38.0497961,247.494431 38.041759,247.549976 37.921953,247.6306 C37.7959443,247.71539 37.7924964,247.749224 37.909668,247.750979 C38.0799599,247.753531 38.1305632,247.650864 38.0931021,247.378811 C38.0638229,247.166169 38.3428261,247.076805 39.0097979,247.085193 C39.3305783,247.089223 39.5411651,247.053152 39.5221834,246.997419 C39.5015719,246.93693 39.804307,246.906244 40.3613963,246.912351 C40.8406887,246.9176 41.3163202,246.885404 41.4183512,246.84079 C41.5203822,246.79618 41.7930737,246.784893 42.0243293,246.81571 C42.3236574,246.855601 42.5011811,246.830559 42.6405094,246.72877 C42.7481533,246.650135 42.7768538,246.613961 42.7042904,246.648382 C42.6317297,246.682805 42.3949377,246.544679 42.1780911,246.341437 C41.9612417,246.138196 41.7820364,246.006677 41.7798496,246.049176 C41.7776656,246.091674 41.6482008,246.054923 41.4921458,245.967537 C41.3360936,245.88014 41.2122198,245.766584 41.2168772,245.715192 C41.2215182,245.663801 41.2890393,245.689998 41.3668853,245.773406 C41.4447312,245.856814 41.6162708,245.926673 41.7480779,245.928648 C41.9252003,245.931297 41.9463059,245.906605 41.8289678,245.833999 C41.7416487,245.779971 41.7093037,245.680134 41.7570842,245.612143 C41.8281269,245.511051 41.8654351,245.509614 41.9618096,245.604261 C42.0485581,245.689457 42.0809795,245.674923 42.0846596,245.549181 C42.0909386,245.335582 41.7610672,245.055644 41.5994294,245.137369 C41.5331231,245.17089 41.5286487,245.150372 41.5894922,245.091775 C41.6503275,245.033176 41.7599725,245.008248 41.8331529,245.036383 C41.9063305,245.064516 41.9678702,245.049113 41.969904,245.002143 C41.971815,244.955177 41.9120935,244.893104 41.8369148,244.864204 C41.6532623,244.793596 41.8355498,244.5465 42.1699502,244.412444 C42.3189973,244.352716 42.4007253,244.263307 42.3515635,244.213754 C42.2933817,244.155105 42.3816399,244.146908 42.6044434,244.19027 C42.8840281,244.244681 42.9143502,244.235858 42.7700342,244.14209 C42.555358,244.002607 42.5488305,243.744404 42.7590323,243.706671 C42.9033975,243.680758 42.9429634,243.533655 42.8979511,243.190218 C42.8862394,243.100901 42.7561577,243.038035 42.5758384,243.034553 C42.4020002,243.031181 42.34078,243.003027 42.4318883,242.968314 C42.6606513,242.881149 42.8085027,242.625504 42.6625978,242.569409 C42.5941349,242.543087 42.5067203,242.56938 42.468342,242.627848 C42.4299663,242.686311 42.3613806,242.713246 42.3159315,242.687707 C42.2704825,242.662167 42.2934909,242.58714 42.3670426,242.520976 C42.4798626,242.419505 42.5465428,242.426307 42.7931874,242.564441 C43.0787426,242.724365 43.0860181,242.724394 43.1040961,242.565725 C43.1143609,242.475672 43.1531979,242.451302 43.1912268,242.511063 C43.2289663,242.570372 43.3267413,242.6199 43.4084966,242.621126 C43.4902546,242.622411 43.522313,242.565614 43.4797359,242.495047 C43.4371589,242.42448 43.4487286,242.373185 43.5054525,242.381062 C43.5621765,242.388945 43.7957171,242.353247 44.0244365,242.301751 C44.2531558,242.250257 44.499208,242.230777 44.5712227,242.258464 C44.6432401,242.286154 44.7040208,242.265848 44.7062949,242.213336 C44.7084789,242.160828 44.7703052,242.140885 44.8434856,242.169018 C44.9166632,242.197153 45.0166003,242.18414 45.0655629,242.1401 C45.1145282,242.096062 45.2676429,242.062049 45.4058246,242.064514 C45.8068671,242.071674 46.0568668,242.028361 46.7263829,241.835739 C47.0721265,241.73627 47.4455713,241.656241 47.5562592,241.657898 C47.6669443,241.659551 47.7860651,241.614512 47.8209627,241.557799 C47.8888278,241.447529 49.2455176,241.414005 49.2408084,241.522716 C49.2394434,241.557364 49.4190555,241.559003 49.640251,241.526344 C50.0761583,241.462005 50.9993651,241.489189 51.667549,241.586037 C52.0141962,241.636282 52.1209911,241.611225 52.2854817,241.44105 C52.3948537,241.327902 52.4471551,241.197837 52.4017006,241.152021 C52.2845099,241.033893 51.3046747,240.938557 49.7041631,240.889558 C48.9459274,240.866345 48.1831709,240.798958 48.0091498,240.73981 C47.8351287,240.680661 47.6408728,240.636563 47.5774686,240.641814 C47.5140616,240.647063 47.2249519,240.643259 46.935004,240.633338 C46.5381794,240.619789 46.3908686,240.572811 46.3392689,240.443404 C46.2835851,240.303753 46.3431455,240.272057 46.6565823,240.274546 C47.0251486,240.277467 47.0302019,240.271865 46.7692876,240.149505 C46.524999,240.034944 46.6366888,240.025615 47.8259422,240.061243 C48.557342,240.083154 49.1550345,240.124621 49.1541527,240.153391 C49.1533337,240.182164 49.3327875,240.196074 49.5530794,240.184305 C50.5392837,240.13162 52.042995,240.081165 52.5987274,240.082115 C52.9327129,240.082757 53.1753771,240.052314 53.1379843,240.014624 C53.1005942,239.976934 53.1884593,239.942177 53.3332448,239.937388 C53.9057367,239.91845 54.0432086,239.904819 54.2966618,239.841857 C54.4414855,239.80588 54.6913488,239.634092 54.8519192,239.460108 C55.1482962,239.138969 55.6232752,238.956845 55.713114,239.129897 C55.7474656,239.196067 55.8282163,239.193976 55.9815522,239.122946 C56.1205747,239.058544 56.2353494,239.052668 56.2950627,239.106893 C56.3944592,239.197159 58.7374926,239.233009 58.8920679,239.146651 C58.9416747,239.118928 59.0577653,239.135044 59.1500475,239.182465 C59.3281335,239.273977 60.2050559,239.272842 60.4735077,239.180748 C60.5614465,239.150582 60.8573539,239.165898 61.1310801,239.214784 C61.404809,239.263673 62.8338766,239.341205 64.3067907,239.387079 C65.7797021,239.432954 67.8335002,239.502234 68.8707828,239.541033 C74.4613694,239.750153 76.1687032,239.797685 79.6470179,239.841043 C82.3795267,239.875103 83.4581579,239.915721 83.4551795,239.984447 C83.4521765,240.053795 83.5047617,240.055436 83.6452148,239.990371 C83.8413407,239.899515 84.7165623,239.888511 87.2349271,239.945238 C87.9934303,239.962324 88.6795066,239.97407 88.7595475,239.971339 C88.8395829,239.96861 89.6254762,239.940487 90.5059667,239.908844 C91.3864599,239.877203 92.214862,239.872811 92.3468575,239.899084 C92.4788557,239.92536 92.6225602,239.914736 92.6662019,239.875487 C92.7098465,239.836235 93.2889122,239.803796 93.953012,239.803403 C94.6171145,239.803082 95.5358332,239.769486 95.9946124,239.728901 C96.4533916,239.68832 97.6647335,239.650449 98.6864824,239.644742 C99.7082368,239.639011 101.002273,239.626623 101.562125,239.617185 C102.121974,239.607746 102.700672,239.638915 102.848119,239.686445 C102.995563,239.733976 103.081457,239.737843 103.038987,239.695034 C102.995249,239.650945 103.571293,239.629512 104.367708,239.645596 C105.140972,239.661216 106.004261,239.631501 106.286128,239.579569 C106.673075,239.508278 106.823744,239.509734 106.901211,239.585525 C106.971374,239.654162 107.005794,239.656177 107.010102,239.591882 C107.013924,239.534016 107.421423,239.496573 108.070041,239.494467 C109.511194,239.489796 113.897698,239.546639 114.786837,239.581513 C115.185758,239.597165 116.101308,239.594853 116.821391,239.576408 C118.558621,239.531878 121.254638,239.546284 121.252293,239.600087 C121.249399,239.666518 121.947354,239.646692 123.113544,239.547218 C123.698567,239.497318 124.352929,239.48646 124.567684,239.523095 C125.070629,239.608887 126.045837,239.644747 126.048606,239.577549 C126.049698,239.549064 126.230437,239.528556 126.450071,239.531974 C130.512169,239.595197 138.179505,239.549793 138.438361,239.460993 C138.500785,239.439581 138.550373,239.456097 138.548574,239.497704 C138.546663,239.539307 138.74126,239.55942 138.980787,239.542401 C139.220304,239.525379 139.5302,239.541598 139.669432,239.578501 C139.989902,239.66337 140.56956,239.697954 140.500229,239.628069 C140.471463,239.599069 141.571729,239.600221 142.945274,239.630638 C144.318816,239.661049 145.442328,239.692512 145.441982,239.700558 C145.441982,239.7086 145.84947,239.7289 146.348295,239.745662 C146.847094,239.762425 147.256261,239.751377 147.257541,239.721088 C147.258906,239.69081 147.487603,239.699846 147.765949,239.741169 C148.044321,239.782493 148.301605,239.789722 148.337728,239.757237 C148.373841,239.724748 148.995382,239.709223 149.718898,239.722737 C150.503227,239.737377 151.036775,239.712832 151.040308,239.661945 C151.043912,239.611614 151.088351,239.615371 151.148883,239.671095 C151.276131,239.788234 152.373476,239.798662 152.524306,239.684178 C152.597901,239.628315 152.634172,239.628859 152.633146,239.685816 C152.633146,239.732804 152.876861,239.770418 153.176639,239.769415 C153.476434,239.768452 153.871591,239.803175 154.054774,239.846665 C154.253952,239.893963 154.496586,239.893574 154.658492,239.845702 C154.919428,239.768548 155.529094,239.744818 158.665635,239.689733 C159.465424,239.675686 160.774797,239.639412 161.575309,239.609121 C162.375819,239.57883 164.174567,239.566213 165.572532,239.581081 C166.970499,239.595962 168.376916,239.583168 168.697917,239.552692 C169.018919,239.522207 170.784847,239.512654 172.622197,239.531464 C176.937371,239.575636 180.184804,239.555165 181.478314,239.475635 C182.044871,239.440803 183.262385,239.365897 184.183935,239.309177 C185.105455,239.252459 186.645532,239.173545 187.606298,239.133811 C188.567064,239.094076 189.648041,239.04673 190.008458,239.028595 C191.189248,238.969183 192.390623,239.00311 193.361774,239.123295 C193.974173,239.199081 195.836424,239.263456 198.555959,239.302843 C200.887696,239.336617 202.84058,239.380913 202.895701,239.401284 C202.95082,239.421659 205.412671,239.499617 208.366471,239.574527 C211.320268,239.649438 214.259017,239.736642 214.897007,239.768317 C218.479095,239.946157 221.198576,240.019371 227.161346,240.098509 C228.000035,240.109633 228.914424,240.134238 229.193318,240.153173 C229.796517,240.194125 232.58866,240.310181 235.21282,240.403376 C240.884303,240.604793 243.000372,240.66967 246.822172,240.759308 C249.137499,240.813611 251.259675,240.882271 251.538114,240.911885 C251.816552,240.941498 252.566543,240.987632 253.204732,241.014404 C254.385804,241.063948 255.734222,241.177911 255.90806,241.242877 C255.960899,241.262629 256.44946,241.305503 256.99374,241.33815 C257.538034,241.370799 258.373856,241.439923 258.851125,241.491756 C259.328398,241.543592 259.914267,241.604726 260.153021,241.627612 C260.39179,241.650496 261.117307,241.758149 261.76528,241.866841 C262.413257,241.975531 263.07956,242.066502 263.245948,242.068995 C263.41236,242.071483 263.547099,242.105548 263.545393,242.144684 C263.543755,242.183822 263.623987,242.2175 263.72379,242.219526 C264.704376,242.239418 267.047819,242.405924 267.415395,242.481818 C267.671493,242.534695 268.014209,242.694093 268.176996,242.836035 C268.498437,243.116336 269.368625,243.403532 270.171163,243.494216 C271.175284,243.607667 272.913448,243.728889 273.277794,243.710877 C273.482516,243.700764 273.648227,243.733925 273.646043,243.784582 C273.643313,243.83524 273.687321,243.851379 273.742685,243.820449 C273.79805,243.789516 273.976291,243.841501 274.138781,243.935966 C274.301298,244.030435 274.869902,244.249665 275.402362,244.423146 C276.178064,244.675879 276.574951,244.748456 277.399384,244.788328 C278.488244,244.840992 278.680682,244.917059 278.558678,245.246562 C278.480955,245.45656 277.895643,245.620852 277.259198,245.611318 C277.076152,245.608573 276.884315,245.644153 276.832936,245.69038 C276.781557,245.736606 276.517839,245.771108 276.246969,245.767049 C275.482214,245.755587 274.280004,245.911588 274.279376,246.022357 C274.279376,246.204515 275.376563,246.443531 276.457588,246.496428 C277.043201,246.525083 278.403505,246.584435 279.480517,246.628323 C281.655781,246.716965 281.883518,246.743616 281.991244,246.922126 C282.150048,247.185317 280.117235,248.041927 278.46078,248.409835 C277.926328,248.528543 277.655048,248.649951 277.468507,248.853895 C277.148388,249.203898 277.287372,249.374732 278.149069,249.690514 C278.483439,249.813041 278.754447,249.972053 278.751334,250.043877 C278.748331,250.1157 278.841206,250.233571 278.957968,250.305812 C279.289035,250.510673 279.198699,250.716232 278.706835,250.877294 C278.458951,250.958466 277.969162,251.176386 277.618412,251.361556 C277.084478,251.643433 276.864577,251.701609 276.267198,251.718986 C275.741591,251.734269 275.487647,251.788507 275.302771,251.924942 C275.164742,252.026803 275.081941,252.140509 275.118742,252.17762 C275.155597,252.214734 275.118769,252.244095 275.037006,252.242871 C274.955242,252.241586 274.808095,252.325956 274.710006,252.430227 C274.611972,252.534499 274.582188,252.593559 274.643886,252.561475 C274.797421,252.481613 275.187811,252.735576 275.07184,252.839884 C275.017868,252.888435 275.089585,252.907141 275.242302,252.884408 C275.387237,252.862845 275.242302,252.91776 274.917595,253.006453 C274.59409,253.095139 274.1212,253.165592 273.866791,253.163014 C273.612355,253.160429 273.23496,253.193289 273.028108,253.236022 C272.751532,253.293162 272.65205,253.286019 272.652105,253.20903 C272.652132,253.151449 272.584155,253.169154 272.500945,253.248374 C272.215196,253.520477 272.477467,253.822903 273.19603,254.050826 C273.568539,254.168928 273.970995,254.358291 274.090405,254.471632 C274.209788,254.584973 274.562805,254.726891 274.874871,254.787009 C276.037933,255.011046 276.200532,255.456375 275.176318,255.61262 C274.539736,255.709731 274.226223,255.981264 274.405038,256.280587 C274.498104,256.436332 274.492999,256.507053 274.388658,256.505493 C274.120408,256.50148 273.854834,256.710435 273.86114,256.92059 C273.867419,257.128421 273.855953,257.131783 272.625406,257.279746 C272.424559,257.303898 272.059832,257.4214 271.814896,257.540858 C271.569933,257.660317 271.18746,257.810372 270.96491,257.874315 C270.742334,257.938257 270.557867,258.045875 270.554946,258.113466 C270.548121,258.272035 270.020658,258.428368 269.392649,258.457993 C268.706027,258.490381 268.422407,258.591144 268.383723,258.816452 C268.351482,259.004257 268.909193,259.414047 269.202996,259.418448 C269.382548,259.421145 270.185878,259.92429 270.181264,260.031169 C270.174985,260.177292 269.647194,260.269782 268.631852,260.302723 C268.078184,260.320685 267.296653,260.371346 266.895152,260.415305 C266.230288,260.488093 263.85756,260.689161 263.316734,260.718543 C263.090534,260.730824 262.978629,261.034145 263.199068,261.037448 C263.264626,261.038411 263.249802,261.110053 263.166141,261.196614 C263.08247,261.283172 263.058462,261.381503 263.112808,261.415125 C263.294872,261.527787 263.182006,262.611681 262.975697,262.731882 C262.86799,262.794629 262.478804,262.853381 262.110827,262.862441 C261.516973,262.877066 261.119575,263.005304 261.249665,263.140335 C261.274836,263.166453 261.202128,263.236004 261.088076,263.294896 C260.974053,263.353784 260.881967,263.373552 260.88346,263.338825 C260.884825,263.304097 260.807372,263.31973 260.71105,263.373563 C260.583201,263.445003 260.48509,263.445341 260.347859,263.374847 C260.210545,263.304295 260.04096,263.305101 259.719437,263.377833 C258.978245,263.545497 259.208269,263.806139 260.204105,263.927014 C261.317926,264.06221 261.565627,264.123683 261.390629,264.221475 C261.343135,264.248019 260.309374,264.267212 259.093364,264.264127 C256.507317,264.257561 256.208682,264.322812 255.970754,264.946362 C255.893798,265.148031 255.66984,265.454901 255.473007,265.62829 C255.147848,265.914745 254.890592,266.288592 254.866636,266.509424 C254.861558,266.556344 254.637119,266.603804 254.367917,266.614892 C254.032173,266.62873 253.853391,266.686116 253.798578,266.797657 C253.754641,266.88709 253.66169,266.938348 253.592015,266.911562 C253.522338,266.884775 253.463632,266.90193 253.461565,266.94969 C253.459654,266.997447 253.157842,267.133944 252.791224,267.253018 C251.751092,267.590832 251.596088,267.87676 252.354064,268.059345 C252.708604,268.144744 252.722999,268.209186 252.467583,268.566932 C252.280294,268.829233 252.751126,269.005894 254.307333,269.257227 C255.813818,269.500532 256.233421,269.660765 255.792158,269.824224 C255.518145,269.925734 253.550492,269.796603 250.455928,269.474033 C249.053975,269.327894 248.461693,269.385676 248.136201,269.700346 C247.811746,270.013996 247.477094,270.103238 246.511329,270.133654 C245.71094,270.158863 244.957643,270.380515 244.948418,270.593542 C244.942685,270.724193 245.582291,270.857135 246.323336,270.87935 C246.880493,270.896051 247.53444,271.130895 247.208306,271.197156 C247.106079,271.217926 246.923122,271.290423 246.801727,271.358257 C246.680344,271.426094 246.582006,271.458651 246.583218,271.430608 C246.58775,271.327323 245.693263,271.638006 245.511988,271.802703 C245.286149,272.00789 244.522216,272.283915 244.221304,272.269051 C243.473339,272.232104 242.477981,272.275023 242.47497,272.344339 C242.4691,272.476745 243.218709,272.867222 243.375417,272.813467 C243.454303,272.786405 243.473191,272.805312 243.417434,272.855488 C243.361633,272.905661 243.382427,272.972247 243.463582,273.003456 C243.544747,273.034665 243.570197,273.097061 243.520087,273.142119 C243.470006,273.187176 243.507693,273.282841 243.604068,273.354711 C243.877786,273.55901 243.59899,273.636496 242.488259,273.664883 C241.929396,273.67917 241.176421,273.72442 240.815015,273.765446 C240.453582,273.806473 239.239439,273.909248 238.116902,273.993834 C236.994334,274.078417 235.708954,274.215462 235.260478,274.298377 C234.802097,274.383124 234.051135,274.443229 233.545309,274.435652 C233.050431,274.428235 232.169234,274.493173 231.587056,274.579947 C230.587581,274.728925 230.245329,274.73096 225.447996,274.616444 C222.653663,274.549743 219.812705,274.469923 219.134723,274.43907 C217.367862,274.358665 215.19618,274.233707 214.898077,274.195296 C214.757605,274.177196 213.059049,274.112427 211.12344,274.051364 C208.355824,273.964052 207.184283,273.962552 205.638019,274.044349 C204.556617,274.101553 202.569463,274.155171 201.222086,274.163503 C199.874735,274.171834 198.533382,274.192145 198.241294,274.20864 C197.23322,274.265568 193.775863,274.349091 191.74705,274.365528 C190.627764,274.374598 188.599524,274.40163 187.239859,274.4256 C185.880177,274.449569 183.133008,274.468224 181.135055,274.467055 C179.137104,274.465932 177.305831,274.474649 177.065542,274.486502 C176.825266,274.498366 175.183335,274.511091 173.41678,274.514775 C171.650238,274.518468 170.014905,274.532168 169.782721,274.545232 C169.336085,274.570363 168.235887,274.598297 164.342437,274.683367 C161.286462,274.750139 158.991583,274.838952 157.096739,274.963779 C156.272795,275.018058 155.348979,275.058729 155.043842,275.054159 C154.738715,275.049584 154.298036,275.079098 154.064575,275.119737 C153.83111,275.160374 153.226978,275.207436 152.722062,275.22432 C152.217132,275.241202 151.167428,275.321684 150.389364,275.403165 C149.611276,275.484648 148.581714,275.565937 148.101417,275.583811 C147.62112,275.601683 146.73643,275.646303 146.135456,275.682969 C145.534458,275.719633 144.64982,275.763057 144.169592,275.77947 C143.68936,275.795884 142.585296,275.857879 141.716122,275.917239 C140.84695,275.976599 139.601813,276.039965 138.949146,276.058052 C138.29648,276.076138 137.386702,276.11416 136.927426,276.142547 C136.468139,276.170932 135.290305,276.189861 134.310025,276.18461 C133.329742,276.17936 132.036069,276.202816 131.435198,276.236738 C130.249016,276.303702 127.724858,276.346456 125.763965,276.332797 C125.084847,276.328062 124.233743,276.352177 123.872618,276.386377 C123.511496,276.420573 121.026028,276.436192 118.349353,276.421081 C115.672681,276.405975 113.341602,276.408495 113.169181,276.426683 C112.996757,276.444875 111.589939,276.466788 110.042916,276.475378 C108.495894,276.483966 106.902889,276.498209 106.502906,276.50702 C106.102923,276.515834 104.631076,276.529391 103.232137,276.537148 C101.833198,276.544901 100.132075,276.567992 99.4518652,276.588452 C98.7716584,276.608914 98.1502231,276.614396 98.0709002,276.600637 C97.9915746,276.586879 96.9773441,276.602996 95.8170505,276.636432 C94.6567568,276.669879 93.0530429,276.708611 92.2532403,276.722503 C91.453435,276.73639 90.5696548,276.760065 90.2892811,276.775104 C90.0089101,276.790145 88.896517,276.813917 87.8172989,276.827937 C86.7380808,276.841951 85.8216389,276.864872 85.7807599,276.878864 C85.7398809,276.892862 84.888525,276.916867 83.8888563,276.93222 C82.8891877,276.947567 81.9399148,276.973597 81.7793635,276.990049 C81.4853207,277.020181 71.1942338,276.976901 66.7425676,276.926809 C65.4245264,276.911975 63.2364369,276.855355 61.8801484,276.800981 C60.5239581,276.74641 58.2388117,276.666126 56.8021438,276.622378 Z M32.280834,265.606925 C32.0577957,265.454363 31.8742797,265.430093 31.0057875,265.438293 C30.4478028,265.443559 29.9664493,265.488571 29.936108,265.538312 C29.8566623,265.668554 30.8574502,265.828958 31.6234555,265.808753 C31.983507,265.79925 32.3373313,265.790058 32.4097364,265.788311 C32.4821387,265.786577 32.4241235,265.70494 32.280834,265.606925 Z M36.0381356,261.175628 C36.0389546,261.154916 35.9744201,261.136992 35.8945513,261.135796 C35.8146824,261.134673 35.7475735,261.174315 35.7454168,261.224052 C35.7432328,261.273789 35.8078765,261.291712 35.8890012,261.263884 C35.9701286,261.236054 36.0372374,261.196338 36.0381356,261.175628 Z M28.5208051,258.429343 C28.3928391,258.398246 28.3339284,258.411688 28.3827053,258.460854 C28.4644715,258.543271 28.739519,258.586291 28.7425138,258.517132 C28.7433328,258.498674 28.6435459,258.459168 28.5208051,258.429343 Z M30.3924439,255.866181 C30.4433256,255.951214 30.5224738,255.999821 30.5683214,255.9742 C30.6141718,255.948579 30.5725256,255.879008 30.4758044,255.819598 C30.3360148,255.733743 30.3189114,255.743301 30.3924439,255.866181 Z M31.5985551,254.858888 C31.6494396,254.943919 31.728585,254.992528 31.7744354,254.966907 C31.820283,254.941286 31.7786396,254.871714 31.6819184,254.812305 C31.542126,254.72645 31.5250199,254.736008 31.5985551,254.858888 Z M30.4459055,254.218449 C30.410683,254.217967 30.3802026,254.255916 30.3781687,254.302881 C30.3762577,254.349847 30.4436723,254.389309 30.5282559,254.390577 C30.6128368,254.391861 30.6433172,254.353849 30.59599,254.306143 C30.5486627,254.258441 30.4811252,254.218977 30.4459055,254.218449 Z M36.2569861,250.323321 C36.2075021,250.350975 36.2923969,250.372441 36.4456372,250.371025 C36.6149819,250.36942 36.6502699,250.349745 36.5356071,250.320751 C36.431848,250.294515 36.3064673,250.295671 36.2569861,250.323321 Z M36.5180532,250.096733 C36.3005487,249.985564 35.9562711,249.647621 35.9605244,249.54946 C35.9618894,249.51959 36.0603715,249.545255 36.1795305,249.606482 C36.4617988,249.751529 36.63315,249.65432 36.4008489,249.480924 C36.1966285,249.32849 35.8199076,249.441157 35.8105355,249.65747 C35.8076144,249.724939 35.7542538,249.760547 35.6919634,249.736598 C35.6296703,249.71265 35.5659849,249.767103 35.5504402,249.857605 C35.5315213,249.967842 35.6150621,250.023546 35.8035849,250.02637 C35.9583596,250.028697 36.083328,250.069012 36.0812915,250.115977 C36.0793805,250.162943 36.2246765,250.202349 36.404447,250.203546 C36.6849135,250.205425 36.7010342,250.190254 36.5180532,250.096733 Z M35.6546678,249.901013 C35.6554961,249.880302 35.7226841,249.840587 35.8038088,249.812757 C35.8849335,249.784927 35.9495471,249.802852 35.9473931,249.852588 C35.9452091,249.902324 35.8781276,249.94204 35.7982587,249.940844 C35.7183926,249.93972 35.6537789,249.921723 35.6546678,249.901013 Z M38.2493919,248.076903 C38.2082207,248.135324 38.1164463,248.160791 38.04545,248.133496 C37.9744536,248.106201 37.9526982,248.144091 37.9971044,248.217686 C38.1147019,248.412587 38.2716359,248.384015 38.2998232,248.162573 C38.3132548,248.057034 38.2905685,248.018484 38.2493919,248.076903 Z M37.3366464,248.039273 C37.2185903,248.118713 37.2054508,248.167542 37.3017434,248.168985 C37.3866764,248.170269 37.501017,248.13096 37.5558327,248.08166 C37.718568,247.935297 37.541937,247.901138 37.3366464,248.039273 Z M42.3963355,245.221084 C42.3971545,245.202626 42.3007281,245.163937 42.182096,245.135109 C42.0634666,245.106281 41.9647907,245.119907 41.9628197,245.165405 C41.9609087,245.210897 42.0572558,245.249585 42.1770592,245.251381 C42.2968625,245.253179 42.3955356,245.239534 42.3963355,245.221084 Z M17.8858291,267.62137 C17.8877401,267.577177 17.9556844,267.518249 18.0368118,267.49042 C18.1179364,267.462589 18.1817174,267.499731 18.1785452,267.572947 C18.1753784,267.646166 18.1074314,267.705093 18.0275625,267.703897 C17.9476936,267.702773 17.8839154,267.665565 17.8858291,267.62137 Z M24.1101981,260.688544 C24.1967309,260.640187 24.3525211,260.618709 24.4563949,260.640813 C24.5642298,260.663759 24.4967279,260.70148 24.2990595,260.728735 C24.0559066,260.762259 23.9996932,260.750296 24.1101981,260.688544 Z M26.1762129,260.733885 C26.0271112,260.674005 26.0173214,260.645032 26.1440126,260.638583 C26.4633461,260.622336 26.5411293,260.609959 26.7191744,260.547062 C26.8150192,260.513202 26.9387756,260.531201 26.9941864,260.587052 C27.0571074,260.650475 27.0329797,260.664785 26.9299222,260.625164 C26.8321418,260.587574 26.7625596,260.615966 26.7591416,260.69485 C26.7526442,260.845049 26.4958304,260.862245 26.1762129,260.733885 Z M25.7477585,260.521375 C25.8398551,260.578361 25.781444,260.611005 25.5766449,260.616996 C25.3424545,260.623851 25.3079392,260.602484 25.4368143,260.530474 C25.5495141,260.467495 25.655662,260.464391 25.7477585,260.521375 Z M29.14547,259.278002 C29.1486368,259.204783 29.2155546,259.169603 29.2941677,259.199826 C29.372778,259.230048 29.4355298,259.290935 29.4336133,259.335128 C29.4317023,259.379321 29.3647873,259.4145 29.2849212,259.413304 C29.2050495,259.41218 29.1423005,259.351221 29.14547,259.278002 Z M29.6077436,257.782767 C29.5909268,257.880592 29.4906021,257.978699 29.3847654,258.000778 C29.2311429,258.032829 29.2279269,258.003074 29.3688222,257.853236 C29.617143,257.58915 29.6422672,257.58174 29.6077436,257.782767 Z M30.3690232,254.733436 C30.2475355,254.686729 30.3176446,254.647569 30.586061,254.612202 C31.0725988,254.548092 31.1656427,254.588435 30.8131369,254.710662 C30.667576,254.761133 30.4677236,254.771383 30.3690232,254.733436 Z M33.8319926,248.998559 C33.9466526,249.027553 33.9113674,249.047271 33.7420228,249.048833 C33.5887824,249.050278 33.5038876,249.028782 33.5533689,249.00113 C33.6028528,248.973474 33.7282308,248.972318 33.8319926,248.998559 Z M34.2824344,248.663517 C34.3970944,248.692511 34.3618092,248.712231 34.1924646,248.713793 C34.0392242,248.715238 33.9543294,248.693741 34.0038134,248.666087 C34.0532946,248.638434 34.1786753,248.637278 34.2824344,248.663517 Z M36.7183424,247.499814 C36.7653666,247.528912 36.767335,247.60264 36.7227104,247.663654 C36.6734039,247.731077 36.6398686,247.710329 36.6372123,247.610748 C36.6347607,247.520638 36.6713182,247.470717 36.7183424,247.499814 Z M41.8726642,242.855623 C41.9678156,242.856426 42.0843948,242.895937 42.1317193,242.943641 C42.2385497,243.051325 42.1882795,243.050574 41.9138953,242.940383 C41.7851704,242.888681 41.768714,242.854851 41.8726642,242.855623 Z" id="marker-3"></path>
                        </g>
                    </g>
                </g>
            </g>
        </g>
    </g>
</svg>