<?xml version="1.0" encoding="UTF-8"?>
<svg width="254px" height="66px" viewBox="0 0 254 66" version="1.1" xmlns="http://www.w3.org/2000/svg" xmlns:xlink="http://www.w3.org/1999/xlink">
    <!-- Generator: Sketch 55.2 (78181) - https://sketchapp.com -->
    <title>marker-1</title>
    <desc>Created with Sketch.</desc>
    <g id="Page-3" stroke="none" stroke-width="1" fill="none" fill-rule="evenodd">
        <g id="one-page-navigation-copy-3" transform="translate(-119.000000, -1270.000000)" fill="#FF0000" fill-rule="nonzero">
            <g id="Group-2" transform="translate(118.000000, 840.000000)">
                <g id="20+-Predesigned-Temp-+-20+-Predesigned-Temp-Mask">
                    <g id="Group-6-Copy" transform="translate(0.000000, 296.000000)">
                        <g id="Group-8" transform="translate(0.000000, 134.000000)">
                            <path d="M39.9588997,14.9860385 C62.3145156,9.26525906 92.8982754,6 126.207031,6 C159.581474,6 190.837432,9.27859855 213.873254,14.9914824 C235.826164,20.435804 248.207031,27.6951751 248.207031,34 C248.207031,37.8004183 243.536766,42.198463 234.237093,46.3345007 C216.352556,54.2886647 156.658845,58.8287952 96.0619779,58.8287952 C95.4823932,58.8287952 93.9785543,58.5441464 93.5198103,58.8287952 C93.258107,58.991181 93.1305916,59.6563221 93.1372639,60.8242188 C93.1372639,61.0548304 95.2137639,64.7588556 96.0619779,65.2615546 C177.138384,61.9314869 224.0095,57.4498841 236.675327,51.8167463 C247.931823,46.8104098 254.207031,40.9009708 254.207031,34 C254.207031,23.6375102 239.946108,15.2757912 215.317503,9.16789719 C191.771811,3.32856538 160.039502,0 126.207031,0 C55.7465995,0 1,14.0095994 1,34 L1,34.2468551 L1.04035176,34.4903899 C3.66059839,50.3043531 46.4482976,57.4454337 72.9782177,57.4454337 C73.3513258,57.4454337 75.1846667,56.6584049 76.266612,55.6055872 C77.305013,54.5951416 77.6085259,53.3174819 77.2646535,53.303019 C41.9267991,51.8167463 9.18338622,45.0524928 7.00533585,33.7644532 C7.29126704,27.4408182 19.0590517,20.3342885 39.9588997,14.9860385 Z" id="marker-1"></path>
                        </g>
                    </g>
                </g>
            </g>
        </g>
    </g>
</svg>