<?xml version="1.0" encoding="UTF-8"?>
<svg width="263px" height="40px" viewBox="0 0 263 40" version="1.1" xmlns="http://www.w3.org/2000/svg" xmlns:xlink="http://www.w3.org/1999/xlink">
    <!-- Generator: Sketch 55.2 (78181) - https://sketchapp.com -->
    <title>marker-4</title>
    <desc>Created with Sketch.</desc>
    <g id="Page-3" stroke="none" stroke-width="1" fill="none" fill-rule="evenodd">
        <g id="one-page-navigation-copy-3" transform="translate(-118.000000, -1391.000000)" fill="#FF0000" fill-rule="nonzero">
            <g id="Group-2" transform="translate(118.000000, 840.000000)">
                <g id="20+-Predesigned-Temp-+-20+-Predesigned-Temp-Mask">
                    <g id="Group-6-Copy" transform="translate(0.000000, 296.000000)">
                        <g id="Group-8" transform="translate(0.000000, 134.000000)">
                            <path d="M126.197962,145.167562 C124.404396,148.815438 125.003945,153.348988 128.015986,156.410952 C130.631392,159.069708 134.525121,160.021388 138.072072,158.868796 L191.15079,141.620704 C191.81022,141.40642 192.518504,141.767282 192.732788,142.426712 C192.845703,142.774193 192.801643,143.153625 192.612107,143.465986 C189.385893,148.782864 191.080711,155.708408 196.397589,158.934622 C199.197422,160.633525 202.598155,161.02937 205.71335,160.018974 L258.901203,142.767805 C261.527917,141.915846 262.966639,139.095824 262.11468,136.46911 C261.262721,133.842396 258.442699,132.403673 255.815985,133.255632 L202.628132,150.506801 C202.279358,150.619924 201.898616,150.575606 201.585149,150.385398 C200.989877,150.024195 200.800127,149.248818 201.16133,148.653546 C202.86056,145.853174 203.255566,142.451492 202.24326,139.336255 C200.322164,133.424337 193.972251,130.189136 188.060333,132.110232 L135.579503,149.164038 C137.84915,146.597581 138.493182,142.949287 137.195874,139.739454 C135.314994,135.085731 130.017652,132.837897 125.363929,134.718776 L97.7718315,145.870581 C97.002257,146.181617 96.1362239,146.14755 95.3934599,145.777024 C93.9619725,145.062928 93.3804116,143.32359 94.0945071,141.892102 C95.7785628,138.516217 95.7301492,134.535164 93.9644952,131.201231 C90.9424622,125.494984 83.8667939,123.319 78.1605477,126.341033 L35.2325181,149.075755 C32.1755694,150.694718 28.3944433,149.837997 26.3338597,147.059514 L9.01609329,123.708297 C7.37115651,121.49027 4.23960557,121.025689 2.02157849,122.670625 C-0.196448588,124.315562 -0.661030068,127.447113 0.983906711,129.66514 L18.3016732,153.016357 C23.3059474,159.764103 32.4886823,161.84471 39.9127007,157.912943 L82.8407302,135.178221 C83.6663323,134.740981 84.6900677,135.055811 85.1273073,135.881413 C85.382769,136.36378 85.3897737,136.939774 85.1461179,137.42821 C81.966683,143.801757 84.5560218,151.545978 90.929568,154.725413 C94.2366462,156.375144 98.0925673,156.526824 101.519016,155.141967 L126.197962,145.167562 Z" id="marker-4"></path>
                        </g>
                    </g>
                </g>
            </g>
        </g>
    </g>
</svg>