<?xml version="1.0" encoding="UTF-8"?>
<svg width="284px" height="284px" viewBox="0 0 284 284" version="1.1" xmlns="http://www.w3.org/2000/svg" xmlns:xlink="http://www.w3.org/1999/xlink">
    <!-- Generator: Sketch 55.2 (78181) - https://sketchapp.com -->
    <title>Group</title>
    <desc>Created with Sketch.</desc>
    <g id="Page-1" stroke="none" stroke-width="1" fill="none" fill-rule="evenodd">
        <g id="Group" fill-rule="nonzero">
            <rect id="Rectangle" fill="#0EAAC6" x="0" y="0" width="284" height="284"></rect>
            <path d="M34.1845522,121.66731 C39.765496,116.899551 48.1556819,117.557709 52.9245569,123.137346 C57.693432,128.716984 57.0351202,137.105205 51.4541764,141.872964 L34.346572,156.487863 C25.044999,164.434127 23.9478126,178.414497 31.8959377,187.713893 C36.079347,192.608528 42.1860401,195.440992 48.6256464,195.473623 L235.898087,196.422566 C243.238912,196.459764 249.159666,202.43944 249.122807,209.778547 C249.085254,217.117654 243.104178,223.037021 235.763352,223.000171 L48.4909115,222.05088 C34.3237777,221.979093 20.8890529,215.747673 11.6855524,204.979474 C-5.80032279,184.520804 -3.38651279,153.76399 17.0769478,136.282209 L34.1845522,121.66731 Z M249.815448,161.333032 C244.234504,166.100791 235.844318,165.442633 231.075443,159.862996 C226.306568,154.283358 226.96488,145.895137 232.545824,141.127378 L249.653428,126.512479 C258.955001,118.566215 260.052187,104.585845 252.104062,95.2864492 C247.920653,90.3918142 241.81396,87.5593502 235.374354,87.5267192 L48.101913,86.5777762 C40.7610875,86.5405782 34.8403341,80.5609022 34.877193,73.2217952 C34.9147462,65.8826884 40.8958224,59.963321 48.2366479,60.0001711 L235.509089,60.949462 C249.676222,61.0212495 263.110947,67.2526693 272.314448,78.0208682 C289.800323,98.4795382 287.386513,129.236352 266.923052,146.718133 L249.815448,161.333032 Z M111.482456,160.786431 C101.507418,160.786431 93.421053,152.151678 93.421053,141.500171 C93.421053,130.848664 101.507418,122.213911 111.482456,122.213911 C121.457494,122.213911 129.54386,130.848664 129.54386,141.500171 C129.54386,152.151678 121.457494,160.786431 111.482456,160.786431 Z M172.517544,160.786431 C162.542506,160.786431 154.45614,152.151678 154.45614,141.500171 C154.45614,130.848664 162.542506,122.213911 172.517544,122.213911 C182.492582,122.213911 190.578947,130.848664 190.578947,141.500171 C190.578947,152.151678 182.492582,160.786431 172.517544,160.786431 Z" id="Combined-Shape" fill="#FFFFFF"></path>
        </g>
    </g>
</svg>